<?xml version="1.0" encoding="UTF-8" standalone="no"?>
<!-- Created with Inkscape (http://www.inkscape.org/) -->

<svg
   width="1080"
   height="1080"
   viewBox="0 0 285.75 285.75"
   version="1.1"
   id="svg5"
   sodipodi:docname="scMinLogo1.svg"
   inkscape:version="1.1 (c68e22c387, 2021-05-23)"
   xmlns:inkscape="http://www.inkscape.org/namespaces/inkscape"
   xmlns:sodipodi="http://sodipodi.sourceforge.net/DTD/sodipodi-0.dtd"
   xmlns="http://www.w3.org/2000/svg"
   xmlns:svg="http://www.w3.org/2000/svg"
   xmlns:rdf="http://www.w3.org/1999/02/22-rdf-syntax-ns#"
   xmlns:cc="http://creativecommons.org/ns#"
   xmlns:dc="http://purl.org/dc/elements/1.1/">
  <title
     id="title1697">ScriptCardsMinLogo1</title>
  <sodipodi:namedview
     id="namedview7"
     pagecolor="#ffffff"
     bordercolor="#666666"
     borderopacity="1.0"
     inkscape:pageshadow="2"
     inkscape:pageopacity="0.0"
     inkscape:pagecheckerboard="0"
     inkscape:document-units="px"
     showgrid="false"
     showguides="true"
     inkscape:guide-bbox="true"
     inkscape:zoom="0.20185185"
     inkscape:cx="465.68807"
     inkscape:cy="497.88991"
     inkscape:window-width="1366"
     inkscape:window-height="705"
     inkscape:window-x="-8"
     inkscape:window-y="-8"
     inkscape:window-maximized="1"
     inkscape:current-layer="layer1" />
  <defs
     id="defs2">
    <clipPath
       clipPathUnits="userSpaceOnUse"
       id="clipPath25">
      <path
         d="M 0,768 H 1024 V 0 H 0 Z"
         id="path23" />
    </clipPath>
    <clipPath
       id="clipPath25-7">
      <path
         d="m0 768h1024v-768h-1024z"
         id="path173" />
    </clipPath>
    <clipPath
       clipPathUnits="userSpaceOnUse"
       id="clipPath369">
      <path
         d="M 0,768 H 1024 V 0 H 0 Z"
         id="path367" />
    </clipPath>
    <clipPath
       id="clipPath25-6">
      <path
         d="m0 768h1024v-768h-1024z"
         id="path1495" />
    </clipPath>
  </defs>
  <g
     inkscape:label="Capa 1"
     inkscape:groupmode="layer"
     id="layer1">
    <g
       transform="matrix(0.35278,0,0,-0.35278,86.121732,259.33663)"
       id="g1516">
      <g
         transform="matrix(1.5403,0,0,1.5403,-627.77,-261.36)"
         id="g1510">
        <g
           clip-path="url(#clipPath25-6)"
           id="g1508">
          <g
             transform="translate(449.1,347.08)"
             id="g1502">
            <path
               d="m 0,0 c 0,7.975 -2.511,13.897 -7.521,17.775 -5.015,3.872 -12.99,6.719 -23.928,8.546 v -54.009 c 9.796,1.137 17.487,4.102 23.074,8.887 C -2.794,-14.015 0,-7.75 0,0 m -82.04,77.938 c 0,-6.383 1.881,-11.57 5.641,-15.554 3.759,-3.989 10.538,-6.896 20.338,-8.717 v 47.515 c -7.295,-1.143 -13.449,-3.648 -18.459,-7.521 -5.015,-3.877 -7.52,-9.117 -7.52,-15.723 m 50.591,47.171 c 7.974,-1.367 15.212,-3.706 21.707,-7.006 6.494,-3.307 12.016,-7.35 16.578,-12.135 4.556,-4.786 8.087,-10.084 10.597,-15.896 2.504,-5.811 3.76,-11.911 3.76,-18.288 V 65.632 H -4.786 v 4.101 c 0,7.521 -2.451,13.898 -7.35,19.143 -4.903,5.239 -11.339,8.888 -19.313,10.938 V 50.933 C -12.536,48.652 1.88,43.466 11.793,35.38 21.706,27.288 26.662,16.178 26.662,2.051 V 0 c 0,-15.27 -5.298,-27.518 -15.894,-36.746 -10.597,-9.23 -24.671,-14.416 -42.217,-15.554 v -20.851 h -24.612 v 21.535 c -10.03,1.592 -18.629,4.385 -25.808,8.375 -7.178,3.984 -13.107,8.769 -17.775,14.356 -4.673,5.582 -8.151,11.623 -10.425,18.117 -2.282,6.496 -3.419,13.043 -3.419,19.656 v 8.204 h 25.979 v -4.103 c 0,-10.938 2.735,-19.714 8.204,-26.32 5.469,-6.612 13.214,-11.057 23.244,-13.331 v 55.718 c -17.091,2.275 -30.139,7.231 -39.139,14.869 -9.005,7.633 -13.502,18.288 -13.502,31.962 v 2.051 c 0,7.29 1.421,13.726 4.272,19.313 2.847,5.581 6.666,10.367 11.451,14.356 4.787,3.985 10.368,7.179 16.75,9.572 6.377,2.392 13.102,3.93 20.168,4.615 v 21.193 h 24.612 z"
               fill="#6eacff"
               id="path1500" />
          </g>
          <g
             transform="translate(547.55,381.26)"
             id="g1506">
            <path
               d="m 0,0 c 0,-8.434 1.196,-16.065 3.589,-22.902 2.392,-6.837 5.693,-12.819 9.913,-17.947 4.214,-5.127 9.229,-9.346 15.041,-12.647 5.811,-3.306 12.135,-5.64 18.971,-7.007 V 65.637 C 40.678,64.27 34.407,61.818 28.714,58.287 23.015,54.752 17.999,50.308 13.673,44.956 9.342,39.599 5.981,33.446 3.589,26.497 1.196,19.543 0,12.081 0,4.108 Z m 72.126,91.269 c 18.459,-2.281 33.67,-9.229 45.634,-20.852 11.965,-11.622 19.426,-25.979 22.39,-43.07 l -26.663,-6.153 c -1.142,10.255 -5.127,19.596 -11.964,28.03 -6.836,8.428 -16.637,13.897 -29.397,16.408 v -126.14 c 6.377,1.138 12.018,3.13 16.921,5.982 4.897,2.846 9.058,6.324 12.476,10.425 3.418,4.102 6.206,8.546 8.375,13.331 2.164,4.786 3.589,9.796 4.273,15.041 l 26.663,-6.153 C 137.64,-38.973 130.119,-53.389 118.273,-65.123 106.421,-76.862 91.039,-83.87 72.126,-86.146 v -21.193 H 47.514 v 21.193 C 37.029,-84.778 27.229,-81.932 18.117,-77.6 9,-73.274 1.079,-67.403 -5.641,-59.995 c -6.724,7.402 -12.022,16.119 -15.894,26.149 -3.878,10.026 -5.812,21.306 -5.812,33.841 v 4.103 c 0,12.305 1.934,23.527 5.812,33.669 3.872,10.138 9.17,18.972 15.894,26.493 6.72,7.52 14.641,13.555 23.758,18.117 9.112,4.556 18.912,7.519 29.397,8.887 V 112.8 h 24.612 z"
               fill="#6eacff"
               id="path1504" />
          </g>
        </g>
      </g>
      <text
         transform="matrix(0,-1,-1,0,0,0)"
         x="-805.41663"
         y="28.160599"
         fill="#49deff"
         font-family="'Space Mono'"
         font-size="540.1px"
         stroke-width="1.5403"
         id="text1514"><tspan
           x="-805.41663 -495.39597 -185.37529"
           y="28.160599"
           stroke-width="1.5403"
           id="tspan1512">( )</tspan></text>
    </g>
  </g>
  <metadata
     id="metadata1695">
    <rdf:RDF>
      <cc:Work
         rdf:about="">
        <dc:title>ScriptCardsMinLogo1</dc:title>
      </cc:Work>
    </rdf:RDF>
  </metadata>
</svg>
