<?xml version="1.0" encoding="UTF-8" standalone="no"?>
<!-- Created with Inkscape (http://www.inkscape.org/) -->

<svg
   width="1080"
   height="1080"
   viewBox="0 0 285.75 285.75"
   version="1.1"
   id="svg5"
   xmlns="http://www.w3.org/2000/svg"
   xmlns:svg="http://www.w3.org/2000/svg"
   xmlns:rdf="http://www.w3.org/1999/02/22-rdf-syntax-ns#"
   xmlns:cc="http://creativecommons.org/ns#"
   xmlns:dc="http://purl.org/dc/elements/1.1/">
  <title
     id="title297">ScriptCardsMinLogo2</title>
  <defs
     id="defs2">
    <clipPath
       clipPathUnits="userSpaceOnUse"
       id="clipPath25">
      <path
         d="M 0,768 H 1024 V 0 H 0 Z"
         id="path23" />
    </clipPath>
    <clipPath
       id="clipPath25-7">
      <path
         d="m0 768h1024v-768h-1024z"
         id="path173" />
    </clipPath>
  </defs>
  <g
     id="layer1">
    <g
       id="g19"
       transform="matrix(0.54486018,0,0,-0.54486018,-152.64869,357.87884)">
      <g
         id="g21"
         clip-path="url(#clipPath25)">
        <g
           id="g27"
           transform="translate(479.4883,357.6855)">
          <path
             d="m 0,0 c 0,7.975 -2.511,13.897 -7.521,17.775 -5.015,3.872 -12.99,6.719 -23.928,8.546 v -54.009 c 9.796,1.137 17.487,4.102 23.074,8.887 C -2.794,-14.015 0,-7.75 0,0 m -82.04,77.938 c 0,-6.383 1.881,-11.57 5.641,-15.554 3.759,-3.989 10.538,-6.896 20.338,-8.717 v 47.515 c -7.295,-1.143 -13.449,-3.648 -18.459,-7.521 -5.015,-3.877 -7.52,-9.117 -7.52,-15.723 m 50.591,47.171 c 7.974,-1.367 15.212,-3.706 21.707,-7.006 6.494,-3.307 12.016,-7.35 16.578,-12.135 4.556,-4.786 8.087,-10.084 10.597,-15.896 2.504,-5.811 3.76,-11.911 3.76,-18.288 V 65.632 H -4.786 v 4.101 c 0,7.521 -2.451,13.898 -7.35,19.143 -4.903,5.239 -11.339,8.888 -19.313,10.938 V 50.933 C -12.536,48.652 1.88,43.466 11.793,35.38 21.706,27.288 26.662,16.178 26.662,2.051 V 0 c 0,-15.27 -5.298,-27.518 -15.894,-36.746 -10.597,-9.23 -24.671,-14.416 -42.217,-15.554 v -20.851 h -24.612 v 21.535 c -10.03,1.592 -18.629,4.385 -25.808,8.375 -7.178,3.984 -13.107,8.769 -17.775,14.356 -4.673,5.582 -8.151,11.623 -10.425,18.117 -2.282,6.496 -3.419,13.043 -3.419,19.656 v 8.204 h 25.979 v -4.103 c 0,-10.938 2.735,-19.714 8.204,-26.32 5.469,-6.612 13.214,-11.057 23.244,-13.331 v 55.718 c -17.091,2.275 -30.139,7.231 -39.139,14.869 -9.005,7.633 -13.502,18.288 -13.502,31.962 v 2.051 c 0,7.29 1.421,13.726 4.272,19.313 2.847,5.581 6.666,10.367 11.451,14.356 4.787,3.985 10.368,7.179 16.75,9.572 6.377,2.392 13.102,3.93 20.168,4.615 v 21.193 h 24.612 z"
             style="fill:#ffcc64;fill-opacity:1;fill-rule:nonzero;stroke:none"
             id="path29" />
        </g>
        <g
           id="g31"
           transform="translate(577.9346,391.8682)">
          <path
             d="m 0,0 c 0,-8.434 1.196,-16.065 3.589,-22.902 2.392,-6.837 5.693,-12.819 9.913,-17.947 4.214,-5.127 9.229,-9.346 15.041,-12.647 5.811,-3.306 12.135,-5.64 18.971,-7.007 V 65.632 C 40.678,64.265 34.407,61.813 28.714,58.282 23.015,54.747 17.999,50.303 13.673,44.951 9.342,39.594 5.981,33.441 3.589,26.492 1.196,19.538 0,12.076 0,4.103 Z m 72.126,91.269 c 18.459,-2.281 33.67,-9.229 45.634,-20.852 11.965,-11.622 19.426,-25.979 22.39,-43.07 L 113.487,21.194 C 112.345,31.449 108.36,40.79 101.523,49.224 94.687,57.652 84.886,63.121 72.126,65.632 V -60.503 c 6.377,1.138 12.018,3.13 16.921,5.982 4.897,2.846 9.058,6.324 12.476,10.425 3.418,4.102 6.206,8.546 8.375,13.331 2.164,4.786 3.589,9.796 4.273,15.041 l 26.663,-6.153 C 137.64,-38.968 130.119,-53.384 118.273,-65.118 106.421,-76.857 91.039,-83.865 72.126,-86.141 v -21.193 H 47.514 v 21.193 c -10.485,1.368 -20.285,4.214 -29.397,8.546 C 9,-73.269 1.079,-67.398 -5.641,-59.99 c -6.724,7.402 -12.022,16.119 -15.894,26.149 -3.878,10.026 -5.812,21.306 -5.812,33.841 v 4.103 c 0,12.305 1.934,23.527 5.812,33.669 3.872,10.138 9.17,18.972 15.894,26.493 6.72,7.52 14.641,13.555 23.758,18.117 9.112,4.556 18.912,7.519 29.397,8.887 v 21.536 h 24.612 z"
             style="fill:#ffcc64;fill-opacity:1;fill-rule:nonzero;stroke:none"
             id="path33" />
        </g>
      </g>
    </g>
    <text
       transform="rotate(90)"
       style="font-variant:normal;font-weight:normal;font-stretch:normal;font-size:191.051px;font-family:'Space Mono';-inkscape-font-specification:SpaceMono-Regular;writing-mode:lr-tb;fill:#ff7279;fill-opacity:1;fill-rule:nonzero;stroke:none;stroke-width:0.544861"
       id="text37"
       x="-25.249971"
       y="-76.007042"><tspan
         x="-25.249971 84.413383 194.07677"
         y="-76.007042"
         id="tspan35"
         style="stroke-width:0.544861">[ ]</tspan></text>
  </g>
  <metadata
     id="metadata295">
    <rdf:RDF>
      <cc:Work
         rdf:about="">
        <dc:title>ScriptCardsMinLogo2</dc:title>
      </cc:Work>
    </rdf:RDF>
  </metadata>
</svg>
